<?xml version="1.0" encoding="UTF-8"?>
<svg xmlns="http://www.w3.org/2000/svg" viewBox="0 0 238.4 105.75">
  <defs>
    <style>
      .cls-1 {
        fill: none;
      }

      .cls-1, .cls-2, .cls-3, .cls-4 {
        stroke-width: 0px;
      }

      .cls-5 {
        isolation: isolate;
      }

      .cls-6 {
        mix-blend-mode: multiply;
        opacity: .55;
      }

      .cls-2 {
        fill: #261f1d;
      }

      .cls-3 {
        fill: #fff4e5;
      }

      .cls-4 {
        fill: #ff4b00;
      }
    </style>
  </defs>
  <g class="cls-5">
    <g id="Layer_2" data-name="Layer 2">
      <g id="Layer_1-2" data-name="Layer 1">
        <g>
          <path class="cls-3" d="M74.81,64.91c-2.07-3.69-4.87-6.7-8.42-9-1.56-1.01-3.23-1.81-5.02-2.42-.88-.29-.92-1.52-.07-1.86.8-.32,1.58-.67,2.35-1.05,3.65-1.82,6.55-4.46,8.71-7.92,2.16-3.46,3.24-7.73,3.24-12.82s-1.25-9.86-3.74-13.75c-2.5-3.89-6.17-6.91-11.02-9.07-4.85-2.16-10.78-3.24-17.78-3.24H2c-1.1,0-2,.9-2,2v96.8c0,1.1.9,2,2,2h42.64c7.1,0,13.13-1.15,18.07-3.46,4.94-2.3,8.71-5.52,11.3-9.65,2.59-4.13,3.89-8.93,3.89-14.4,0-4.42-1.03-8.47-3.1-12.17ZM21.6,22.92c0-1.1.9-2,2-2h15.57c4.7,0,8.28,1.08,10.73,3.24,2.45,2.16,3.67,5.16,3.67,9s-1.22,6.82-3.67,8.93c-2.45,2.11-5.98,3.17-10.58,3.17h-15.71c-1.1,0-2-.9-2-2v-20.34ZM52.06,83.77c-2.64,2.16-6.31,3.24-11.02,3.24h-17.44c-1.1,0-2-.9-2-2v-21.78c0-1.1.9-2,2-2h17.15c4.7,0,8.42,1.15,11.16,3.46,2.74,2.3,4.1,5.52,4.1,9.65s-1.32,7.27-3.96,9.43Z"/>
          <path class="cls-3" d="M109.01,105.75c-5.95,0-10.92-.99-14.9-2.95-3.99-1.97-6.91-4.58-8.78-7.85-1.87-3.26-2.81-6.91-2.81-10.94s1.08-8.04,3.24-11.45c2.16-3.41,5.52-6.07,10.08-7.99,4.56-1.92,10.44-2.88,17.64-2.88h15.36c1.14,0,2.07-.96,2-2.1-.14-2.34-.53-4.35-1.16-6.03-.82-2.16-2.14-3.77-3.96-4.82-1.82-1.06-4.32-1.58-7.49-1.58-3.36,0-6.19.7-8.5,2.09-1.91,1.16-3.23,2.82-3.95,5-.27.83-1.03,1.4-1.9,1.4h-16.92c-1.23,0-2.18-1.1-1.98-2.31.72-4.23,2.3-7.97,4.74-11.23,2.88-3.84,6.79-6.86,11.74-9.07,4.94-2.21,10.58-3.31,16.92-3.31,6.91,0,12.91,1.1,18,3.31,5.09,2.21,9.05,5.5,11.88,9.86,2.83,4.37,4.25,9.77,4.25,16.2v43.48c0,1.1-.9,2-2,2h-14.27c-.92,0-1.72-.63-1.94-1.52l-1.82-7.3c-.21-.84-1.3-1.02-1.79-.32-.76,1.08-1.6,2.09-2.51,3.04-1.44,1.49-3.12,2.79-5.04,3.89-1.92,1.11-4.03,1.94-6.34,2.52s-4.9.86-7.78.86ZM114.49,89.33c2.21,0,4.18-.38,5.9-1.15,1.73-.77,3.24-1.82,4.54-3.17,1.3-1.34,2.35-2.9,3.17-4.68.5-1.08.92-2.25,1.25-3.49s-.64-2.48-1.94-2.48h-11.48c-2.4,0-4.42.31-6.05.94-1.63.62-2.81,1.54-3.53,2.74-.72,1.2-1.08,2.52-1.08,3.96,0,1.63.41,2.98,1.22,4.03.81,1.06,1.92,1.87,3.31,2.45,1.39.58,2.95.86,4.68.86Z"/>
          <path class="cls-3" d="M211.45,104.58h17.89c1.13,0,2.05-1.05,2.05-2.35v-59.31c0-1.3-.92-2.35-2.05-2.35h-17.89c-1.13,0-2.05,1.05-2.05,2.35v59.31c0,1.3.92,2.35,2.05,2.35Z"/>
          <path class="cls-3" d="M195.33,32h-9.94c-1.1,0-2-.9-2-2v-6.82c0-2.21,1.79-4,4-4h7.94c1.1,0,2-.9,2-2V2.9c0-1.1-.9-2-2-2h-7.05c-5.28,0-9.91.84-13.9,2.52-3.99,1.68-7.08,4.42-9.29,8.21-2.21,3.79-3.31,8.86-3.31,15.19v3.18c0,1.1-.9,2-2,2h-7.57c-.92,0-1.35,1.14-.66,1.75,3.62,3.2,10.23,11.08,10.23,25.9v42.93c0,1.1.9,2,2,2h17.6c1.1,0,2-.9,2-2v-48.58c0-2.21,1.79-4,4-4h7.94c1.1,0,2-.9,2-2v-14c0-1.1-.9-2-2-2Z"/>
          <g>
            <circle class="cls-4" cx="220.4" cy="18" r="18"/>
            <circle class="cls-2" cx="220.4" cy="17.64" r="16.38"/>
            <circle class="cls-4" cx="220.4" cy="16" r="13.92"/>
            <g class="cls-6">
              <path class="cls-4" d="M207.68,14.71c2.04,9.4,13.45,13.2,20.71,7.26,2.29-1.81,4.03-4.44,4.85-7.73.87,3.31-.21,7.2-2.67,9.97-2.42,2.8-6.13,4.57-9.95,4.61-7.38.4-14.93-6.54-12.94-14.11h0Z"/>
            </g>
            <path class="cls-1" d="M208.02,16.38c0-6.6,5.79-11.51,12.38-11.51s12.52,5.35,12.52,11.95"/>
          </g>
        </g>
      </g>
    </g>
  </g>
</svg>